<svg width="190" height="150" viewBox="0 0 190 150" fill="none" xmlns="http://www.w3.org/2000/svg">
<path d="M169.355 0H20.6454C9.24328 0 0 9.58568 0 21.4102V128.59C0 140.414 9.24328 150 20.6454 150H169.355C180.757 150 190 140.414 190 128.59V21.4102C190 9.58568 180.757 0 169.355 0Z" fill="#143D8F"/>
<path d="M74.8575 96.0034L91.9106 127.048H65.4845L50.5785 97.395C50.317 96.9383 49.6219 95.6394 48.4933 93.4984C47.3784 91.3716 46.1535 89.3305 44.8184 87.375V127.048H20.6426V47.7233H44.8184V83.7781C46.3324 82.0082 47.6468 80.0813 48.7617 77.9974C49.8903 75.8992 50.5441 74.6645 50.723 74.2934L65.0716 47.7233H90.5687L75.2704 74.2934C74.9951 74.6645 74.4171 75.6422 73.5362 77.2266C72.6416 78.811 71.6781 80.274 70.6458 81.6157C69.6136 82.9574 68.5194 84.1849 67.3632 85.2983C68.9736 86.8826 70.288 88.4384 71.3065 89.9657C72.3388 91.4929 73.5224 93.5055 74.8575 96.0034ZM145.176 47.7233H169.352V92.1067C169.352 101.299 168.388 108.471 166.461 113.624C164.534 118.762 160.928 122.538 155.643 124.95C150.372 127.376 142.678 128.59 132.562 128.59C125.143 128.59 118.88 127.776 113.774 126.149C108.682 124.522 104.635 121.432 101.635 116.878C98.6342 112.339 97.1339 105.945 97.1339 97.6948V47.7233H121.289V92.385C121.289 97.3094 121.537 101.049 122.032 103.604C122.528 106.145 123.67 108.093 125.459 109.449C127.249 110.791 129.981 111.462 133.656 111.462C135.885 111.462 137.984 111.226 139.953 110.755C141.921 110.298 143.263 109.606 143.978 108.678C144.777 107.565 145.176 103.525 145.176 96.56V47.7233ZM129.754 31.58C129.754 34.8201 128.9 37.3679 127.194 39.2235C125.501 41.079 123.182 42.0068 120.236 42.0068C117.277 42.0068 114.944 41.1076 113.237 39.3091C111.544 37.4964 110.698 35.0128 110.698 31.8583C110.698 28.6183 111.544 26.0633 113.237 24.1935C114.944 22.3379 117.277 21.4102 120.236 21.4102C123.264 21.4102 125.611 22.3165 127.276 24.1293C128.928 25.942 129.754 28.4256 129.754 31.58ZM156.056 31.58C156.056 34.7344 155.182 37.2609 153.434 39.1592C151.686 41.0576 149.339 42.0068 146.394 42.0068C143.449 42.0068 141.143 41.1076 139.478 39.3091C137.826 37.4964 137 35.0128 137 31.8583C137 28.6183 137.826 26.0633 139.478 24.1935C141.143 22.3379 143.449 21.4102 146.394 21.4102C149.339 21.4102 151.686 22.3165 153.434 24.1293C155.182 25.942 156.056 28.4256 156.056 31.58Z" fill="white"/>
</svg>
